<svg xmlns="http://www.w3.org/2000/svg" width="40" height="40"><g fill="none" fill-rule="evenodd"><path d="M20 0c11.046 0 20 8.954 20 20s-8.954 20-20 20S0 31.046 0 20 8.954 0 20 0z" fill="#000"/><path fill="#FFF" fill-rule="nonzero" d="M20.223 12.612c.832 0 1.875-.58 2.496-1.353.562-.7.972-1.679.972-2.657 0-.133-.011-.266-.035-.375-.926.037-2.039.64-2.707 1.45-.527.616-1.008 1.582-1.008 2.573 0 .144.024.29.036.338.058.012.152.024.246.024zm-2.93 14.615c1.137 0 1.64-.785 3.059-.785 1.441 0 1.757.761 3.023.761 1.242 0 2.074-1.184 2.86-2.343.878-1.329 1.242-2.633 1.265-2.694-.082-.024-2.46-1.026-2.46-3.84 0-2.44 1.874-3.54 1.98-3.624-1.243-1.836-3.13-1.885-3.645-1.885-1.395 0-2.531.87-3.246.87-.774 0-1.793-.821-3-.821-2.297 0-4.629 1.956-4.629 5.652 0 2.295.867 4.723 1.934 6.294.914 1.328 1.71 2.415 2.859 2.415z"/></g></svg>